<svg xmlns="http://www.w3.org/2000/svg" xmlns:xlink="http://www.w3.org/1999/xlink" width="500" zoomAndPan="magnify" viewBox="0 0 375 374.999991" height="500" preserveAspectRatio="xMidYMid meet" version="1.0"><defs><g/><clipPath id="e9b625b464"><path d="M 187.5 0 C 83.945312 0 0 83.945312 0 187.5 C 0 291.054688 83.945312 375 187.5 375 C 291.054688 375 375 291.054688 375 187.5 C 375 83.945312 291.054688 0 187.5 0 Z M 187.5 0 " clip-rule="nonzero"/></clipPath></defs><g clip-path="url(#e9b625b464)"><rect x="-37.5" width="450" fill="#2a2a2b" y="-37.499999" height="449.999989" fill-opacity="1"/></g><g fill="#a020f0" fill-opacity="1"><g transform="translate(35.892869, 266.449495)"><g><path d="M 67.59375 19.59375 C 61.0625 19.59375 55.460938 18.726562 50.796875 17 C 46.128906 15.269531 42.332031 13.070312 39.40625 10.40625 C 36.46875 7.738281 34.332031 4.867188 33 1.796875 C 31.664062 -1.128906 31 -3.925781 31 -6.59375 L 31 -47.203125 C 31 -49.734375 30.132812 -51.734375 28.40625 -53.203125 C 26.664062 -54.671875 24.664062 -55.738281 22.40625 -56.40625 C 20.132812 -56.9375 17.863281 -57.269531 15.59375 -57.40625 C 13.195312 -57.53125 11.332031 -57.59375 10 -57.59375 L 20.40625 -78.59375 C 23.070312 -78.59375 25.535156 -79.925781 27.796875 -82.59375 C 29.929688 -85.132812 31 -89.003906 31 -94.203125 L 31 -145.40625 C 31 -147.9375 31.398438 -150.46875 32.203125 -153 C 32.867188 -155.53125 34.203125 -157.796875 36.203125 -159.796875 C 38.203125 -161.660156 40.9375 -163.195312 44.40625 -164.40625 C 47.738281 -165.601562 52.003906 -166.203125 57.203125 -166.203125 L 78 -166.203125 L 72.796875 -145.40625 C 68.929688 -145.40625 65.664062 -145.335938 63 -145.203125 C 60.332031 -145.066406 58.195312 -144.664062 56.59375 -144 C 54.863281 -143.332031 53.664062 -142.332031 53 -141 C 52.195312 -139.53125 51.796875 -137.460938 51.796875 -134.796875 L 51.796875 -89 C 51.796875 -85.132812 51 -81.867188 49.40625 -79.203125 C 47.664062 -76.398438 45.863281 -74.195312 44 -72.59375 C 41.601562 -70.59375 39.003906 -69.0625 36.203125 -68 C 39.003906 -66.800781 41.601562 -65.269531 44 -63.40625 C 45.863281 -61.800781 47.664062 -59.664062 49.40625 -57 C 51 -54.332031 51.796875 -51.066406 51.796875 -47.203125 L 51.796875 -11.796875 C 51.796875 -9.128906 52.394531 -7.128906 53.59375 -5.796875 C 54.800781 -4.328125 56.40625 -3.328125 58.40625 -2.796875 C 60.40625 -2.128906 62.671875 -1.726562 65.203125 -1.59375 C 67.597656 -1.46875 70.128906 -1.40625 72.796875 -1.40625 Z M 67.59375 19.59375 "/></g></g></g><g fill="#a020f0" fill-opacity="1"><g transform="translate(123.890524, 266.449495)"><g><path d="M 79.203125 -21 C 83.066406 -21 86.664062 -21.800781 90 -23.40625 C 93.195312 -25 95.929688 -26.796875 98.203125 -28.796875 C 100.867188 -31.066406 103.269531 -33.664062 105.40625 -36.59375 L 121.203125 -21 C 117.867188 -17 113.9375 -13.46875 109.40625 -10.40625 C 105.53125 -7.738281 100.660156 -5.335938 94.796875 -3.203125 C 88.796875 -1.066406 81.863281 0 74 0 C 62.664062 0 52.734375 -2.132812 44.203125 -6.40625 C 35.671875 -10.53125 28.601562 -15.992188 23 -22.796875 C 17.269531 -29.597656 13.003906 -37.398438 10.203125 -46.203125 C 7.398438 -54.867188 6 -63.800781 6 -73 C 6 -82.195312 7.46875 -91.195312 10.40625 -100 C 13.195312 -108.800781 17.460938 -116.664062 23.203125 -123.59375 C 28.796875 -130.53125 35.863281 -136.132812 44.40625 -140.40625 C 52.800781 -144.53125 62.664062 -146.59375 74 -146.59375 C 81.863281 -146.59375 88.796875 -145.53125 94.796875 -143.40625 C 100.660156 -141.132812 105.53125 -138.664062 109.40625 -136 C 113.9375 -132.9375 117.867188 -129.46875 121.203125 -125.59375 L 105.40625 -110 C 103.269531 -112.800781 100.867188 -115.398438 98.203125 -117.796875 C 95.929688 -119.660156 93.195312 -121.460938 90 -123.203125 C 86.664062 -124.796875 83.066406 -125.59375 79.203125 -125.59375 C 74.003906 -125.59375 69.46875 -124.128906 65.59375 -121.203125 C 61.59375 -118.128906 58.328125 -114.128906 55.796875 -109.203125 C 53.128906 -104.265625 51.128906 -98.726562 49.796875 -92.59375 C 48.460938 -86.332031 47.796875 -79.9375 47.796875 -73.40625 C 47.796875 -66.863281 48.460938 -60.460938 49.796875 -54.203125 C 51.128906 -47.929688 53.128906 -42.332031 55.796875 -37.40625 C 58.328125 -32.46875 61.59375 -28.53125 65.59375 -25.59375 C 69.46875 -22.53125 74.003906 -21 79.203125 -21 Z M 79.203125 -21 "/></g></g></g><g fill="#a020f0" fill-opacity="1"><g transform="translate(251.087141, 266.449495)"><g><path d="M 20.40625 -166.203125 C 26.9375 -166.203125 32.535156 -165.332031 37.203125 -163.59375 C 41.867188 -161.863281 45.664062 -159.734375 48.59375 -157.203125 C 51.53125 -154.535156 53.734375 -151.664062 55.203125 -148.59375 C 56.535156 -145.53125 57.203125 -142.664062 57.203125 -140 L 57.203125 -99.59375 C 57.203125 -96.925781 58.066406 -94.925781 59.796875 -93.59375 C 61.398438 -92.132812 63.332031 -91.070312 65.59375 -90.40625 C 67.863281 -89.738281 70.195312 -89.335938 72.59375 -89.203125 C 74.863281 -89.066406 76.664062 -89 78 -89 L 67.59375 -68 C 64.925781 -68 62.53125 -66.734375 60.40625 -64.203125 C 58.269531 -61.535156 57.203125 -57.601562 57.203125 -52.40625 L 57.203125 -1.40625 C 57.203125 1.257812 56.800781 3.863281 56 6.40625 C 55.195312 8.9375 53.863281 11.132812 52 13 C 50 15 47.332031 16.597656 44 17.796875 C 40.53125 18.992188 36.195312 19.59375 31 19.59375 L 10 19.59375 L 15.203125 -1.40625 C 19.203125 -1.40625 22.535156 -1.46875 25.203125 -1.59375 C 27.867188 -1.726562 30 -2.128906 31.59375 -2.796875 C 33.195312 -3.328125 34.398438 -4.328125 35.203125 -5.796875 C 35.867188 -7.128906 36.203125 -9.128906 36.203125 -11.796875 L 36.203125 -57.59375 C 36.203125 -61.46875 37 -64.800781 38.59375 -67.59375 C 40.195312 -70.257812 42 -72.394531 44 -74 C 46.269531 -75.863281 48.867188 -77.394531 51.796875 -78.59375 C 48.867188 -79.800781 46.269531 -81.335938 44 -83.203125 C 42 -84.796875 40.195312 -86.925781 38.59375 -89.59375 C 37 -92.257812 36.203125 -95.59375 36.203125 -99.59375 L 36.203125 -134.796875 C 36.203125 -137.460938 35.601562 -139.53125 34.40625 -141 C 33.195312 -142.332031 31.660156 -143.332031 29.796875 -144 C 27.796875 -144.664062 25.53125 -145.066406 23 -145.203125 C 20.46875 -145.335938 17.867188 -145.40625 15.203125 -145.40625 Z M 20.40625 -166.203125 "/></g></g></g></svg>